HIERARCHY
ROOT Hips
{
	OFFSET 0 0 0
	CHANNELS 6 Xposition Yposition Zposition Yrotation Xrotation Zrotation
	JOINT Spine
	{
		OFFSET -0 8.27663 -2.63818
		CHANNELS 3 Yrotation Xrotation Zrotation
		JOINT Spine1
		{
			OFFSET -0 10.2785 0
			CHANNELS 3 Yrotation Xrotation Zrotation
			JOINT Spine2
			{
				OFFSET -0 10.2785 0
				CHANNELS 3 Yrotation Xrotation Zrotation
				JOINT Spine3
				{
					OFFSET -0 10.2785 0
					CHANNELS 3 Yrotation Xrotation Zrotation
					JOINT Neck
					{
						OFFSET -0 12.5595 3.63818
						CHANNELS 3 Yrotation Xrotation Zrotation
						JOINT Head
						{
							OFFSET -0 10.3458 0
							CHANNELS 3 Yrotation Xrotation Zrotation
							End Site
							{
								OFFSET -0 15 0
							}
						}
					}
					JOINT LeftShoulder
					{
						OFFSET 1.7243 3.23436 3.4486
						CHANNELS 3 Yrotation Xrotation Zrotation
						JOINT LeftArm
						{
							OFFSET 14.9201 0 0
							CHANNELS 3 Yrotation Xrotation Zrotation
							JOINT LeftForeArm
							{
								OFFSET 26.9308 0 0
								CHANNELS 3 Yrotation Xrotation Zrotation
								JOINT LeftHand
								{
									OFFSET 23.3929 0 0
									CHANNELS 3 Yrotation Xrotation Zrotation
									End Site
									{
										OFFSET 15 0 0
									}
								}
							}
						}
					}
					JOINT RightShoulder
					{
						OFFSET -1.7243 3.23436 3.4486
						CHANNELS 3 Yrotation Xrotation Zrotation
						JOINT RightArm
						{
							OFFSET -14.9201 0 0
							CHANNELS 3 Yrotation Xrotation Zrotation
							JOINT RightForeArm
							{
								OFFSET -26.9308 0 0
								CHANNELS 3 Yrotation Xrotation Zrotation
								JOINT RightHand
								{
									OFFSET -23.3929 0 0
									CHANNELS 3 Yrotation Xrotation Zrotation
									End Site
									{
										OFFSET -15 0 0
									}
								}
							}
						}
					}
				}
			}
		}
	}
	JOINT LeftUpLeg
	{
		OFFSET 10.3458 -3.4486 2
		CHANNELS 3 Yrotation Xrotation Zrotation
		JOINT LeftLeg
		{
			OFFSET -0 -40.2665 2.41402
			CHANNELS 3 Yrotation Xrotation Zrotation
			JOINT LeftFoot
			{
				OFFSET -0 -38.6848 -2.41402
				CHANNELS 3 Yrotation Xrotation Zrotation
				JOINT LeftToeBase
				{
					OFFSET -0 -6.65752 15.5187
					CHANNELS 3 Yrotation Xrotation Zrotation
					End Site
					{
						OFFSET -0 0 5
					}
				}
			}
		}
	}
	JOINT RightUpLeg
	{
		OFFSET -10.3458 -3.4486 2
		CHANNELS 3 Yrotation Xrotation Zrotation
		JOINT RightLeg
		{
			OFFSET -0 -40.2665 2.41402
			CHANNELS 3 Yrotation Xrotation Zrotation
			JOINT RightFoot
			{
				OFFSET -0 -38.6848 -2.41402
				CHANNELS 3 Yrotation Xrotation Zrotation
				JOINT RightToeBase
				{
					OFFSET -0 -6.65752 15.5187
					CHANNELS 3 Yrotation Xrotation Zrotation
					End Site
					{
						OFFSET -0 0 5
					}
				}
			}
		}
	}
}
MOTION
Frames: 13
Frame Time: 0.00833333
-225.139185 48.971756 78.453729 -2.562732 -26.709539 5.930186 -3.734981 5.921281 -0.449376 -3.118197 5.568038 -0.205322 -1.203571 5.165541 0.098933 -0.399653 4.993142 0.115333 -0.886137 9.383475 -3.367858 -0.380107 7.616168 -2.274807 10.814813 5.878211 -4.836549 -54.658792 -3.584262 -53.017381 -53.450840 22.164694 2.063603 12.522958 12.822341 22.168187 -6.247510 7.908830 10.347718 34.340721 1.443608 36.306011 96.004383 14.193180 -11.402375 -14.470583 4.072198 0.683142 14.404418 -59.172403 -11.781260 180.000000 84.841785 180.000000 11.537722 -2.792947 2.167776 0.000000 -8.400618 0.000000 5.292169 -62.405483 -7.087676 180.000000 84.103202 180.000000 -23.117383 -3.300836 -1.838441 0.000000 -7.487747 0.000000
-225.135522 48.973364 78.453723 -2.576935 -26.702634 5.983201 -3.717524 5.921361 -0.498616 -3.121466 5.584290 -0.238599 -1.193293 5.180856 0.123121 -0.394032 4.970454 0.107228 -0.863621 9.431525 -3.375067 -0.369851 7.598762 -2.273062 10.824132 5.894249 -4.836404 -54.662070 -3.575586 -53.023306 -53.486582 22.148181 2.148743 12.505998 12.753081 22.060284 -6.209704 7.844223 10.355098 34.186062 1.417313 36.280952 96.086248 14.319804 -11.259995 -14.556289 3.900755 0.712069 14.521175 -59.135648 -11.884365 180.000000 84.866567 180.000000 11.530288 -2.797506 2.200635 0.000000 -8.542482 0.000000 5.408912 -62.420227 -7.214630 180.000000 84.086798 180.000000 -23.104843 -3.276669 -1.814025 0.000000 -7.490205 0.000000
-225.147754 48.970313 78.451544 -2.564194 -26.701574 5.983929 -3.724445 5.931463 -0.522810 -3.129391 5.590014 -0.255515 -1.160466 5.188299 0.099493 -0.373055 4.982470 0.123117 -0.877568 9.391301 -3.407535 -0.361135 7.716397 -2.205321 10.800506 5.900005 -4.822350 -54.651713 -3.586210 -53.014085 -53.504943 22.067620 2.222469 12.410204 12.807849 21.925070 -6.205601 7.831220 10.374239 34.138070 1.400390 36.230008 96.151468 14.302547 -11.235141 -14.598445 3.896929 0.696767 14.545125 -59.140875 -11.876990 180.000000 84.857444 180.000000 11.473674 -2.837901 2.161791 0.000000 -8.432506 0.000000 5.367789 -62.422180 -7.184186 180.000000 84.093293 180.000000 -23.104994 -3.284009 -1.897249 0.000000 -7.528834 0.000000
-225.151050 48.961371 78.449750 -2.553534 -26.703345 5.983051 -3.718636 5.942981 -0.534294 -3.130093 5.627307 -0.265604 -1.136835 5.185793 0.086401 -0.351138 4.967024 0.113245 -0.894660 9.435597 -3.423446 -0.363314 7.677706 -2.176259 10.801388 5.934837 -4.773344 -54.709605 -3.603608 -52.979438 -53.519139 21.947371 2.292454 12.398721 12.951038 21.937332 -6.252561 7.805972 10.357028 34.116842 1.379325 36.213091 96.203007 14.298986 -11.171674 -14.632674 3.802595 0.659850 14.591194 -59.147764 -11.899917 180.000000 84.838773 180.000000 11.460869 -2.890998 2.168996 0.000000 -8.315447 0.000000 5.365147 -62.442619 -7.192873 180.000000 84.070312 180.000000 -23.106899 -3.293054 -1.901273 0.000000 -7.453935 0.000000
-225.160352 48.958218 78.444873 -2.606864 -26.703132 6.029090 -3.668216 5.963428 -0.576706 -3.080026 5.646397 -0.289752 -1.158860 5.197697 0.109455 -0.371407 4.965881 0.123939 -0.918520 9.530154 -3.533188 -0.347895 7.507653 -2.060805 10.798639 5.924829 -4.800137 -54.622240 -3.588516 -52.991432 -53.647438 21.921383 2.340148 12.511674 13.080621 21.957707 -6.240895 7.753538 10.317128 34.076848 1.324005 36.230000 96.306827 14.121812 -11.153381 -14.688697 3.895612 0.803297 14.691723 -59.124080 -11.913644 180.000000 84.843801 180.000000 11.402126 -2.908030 2.114689 0.000000 -8.365070 0.000000 5.462158 -62.453960 -7.234052 180.000000 84.064731 180.000000 -23.111367 -3.278684 -1.859501 0.000000 -7.419037 0.000000
-225.168359 48.959616 78.442700 -2.619980 -26.725864 6.043388 -3.639400 5.976131 -0.600595 -3.077333 5.704793 -0.300701 -1.139517 5.226147 0.069794 -0.363651 4.932634 0.125975 -0.954768 9.622093 -3.572070 -0.345282 7.332186 -1.944612 10.818310 5.897297 -4.758152 -54.634735 -3.589460 -53.007320 -53.686092 21.924623 2.395781 12.514639 13.115437 21.923123 -6.216410 7.706259 10.333813 33.973613 1.301362 36.244945 96.310296 14.182884 -11.129596 -14.549322 3.753873 0.882107 14.742171 -59.079640 -11.913741 180.000000 84.849487 180.000000 11.378606 -2.963071 2.130581 0.000000 -8.349540 0.000000 5.450101 -62.426028 -7.217376 180.000000 84.077111 180.000000 -23.126893 -3.262895 -1.890158 0.000000 -7.553073 0.000000
-225.172461 48.948914 78.437408 -2.612513 -26.729285 6.047485 -3.644252 6.021370 -0.622199 -3.081729 5.715899 -0.321588 -1.121729 5.222966 0.054889 -0.351739 4.932179 0.128014 -0.928848 9.677460 -3.553370 -0.341268 7.247359 -1.971916 10.850668 5.911317 -4.742952 -54.680064 -3.559141 -52.985197 -53.745085 21.817096 2.533010 12.505294 13.303184 21.797200 -6.187922 7.683429 10.283500 33.955946 1.275239 36.265155 96.308557 14.269250 -11.158826 -14.519741 3.672872 0.909799 14.800577 -59.077650 -11.942431 180.000000 84.838551 180.000000 11.354043 -3.003104 2.156364 0.000000 -8.322801 0.000000 5.407924 -62.433216 -7.196275 180.000000 84.076870 180.000000 -23.126609 -3.282325 -1.970134 0.000000 -7.525166 0.000000
-225.163647 48.950128 78.432349 -2.655929 -26.723602 6.119593 -3.590917 6.051884 -0.634983 -3.063199 5.726803 -0.372899 -1.119374 5.231489 -0.008018 -0.381861 4.963893 0.149991 -0.888415 9.588402 -3.505263 -0.334695 7.397190 -2.029921 10.919962 5.931327 -4.760154 -54.762418 -3.520948 -52.908308 -53.783200 21.690424 2.694131 12.459558 13.379521 21.680810 -6.165486 7.583873 10.219558 33.925358 1.240336 36.359623 96.314075 14.271043 -11.140098 -14.486811 3.700637 0.943830 14.972350 -59.034020 -12.069031 180.000000 84.853021 180.000000 11.345879 -3.081711 2.186818 0.000000 -8.201182 0.000000 5.574213 -62.454961 -7.350707 180.000000 84.058120 180.000000 -23.105693 -3.279868 -1.939306 0.000000 -7.533187 0.000000
-225.170874 48.945032 78.429669 -2.687354 -26.726138 6.151524 -3.561280 6.074559 -0.658910 -3.036922 5.756641 -0.408983 -1.103551 5.231599 -0.049124 -0.375434 4.962796 0.151024 -0.872006 9.542078 -3.456587 -0.333185 7.567775 -2.050279 10.912205 5.960995 -4.683616 -54.645505 -3.643677 -52.925620 -53.839252 21.849728 2.709591 12.446612 13.374906 21.581893 -6.214998 7.544391 10.218874 33.955950 1.186840 36.352808 96.271544 14.271552 -11.121311 -14.453750 3.767378 1.031427 15.055505 -59.028272 -12.085828 180.000000 84.837347 180.000000 11.302526 -3.118692 2.109058 0.000000 -8.079425 0.000000 5.596195 -62.459484 -7.358297 180.000000 84.059822 180.000000 -23.098768 -3.269210 -1.971873 0.000000 -7.443375 0.000000
-225.174536 48.941510 78.426758 -2.688639 -26.726663 6.152733 -3.543155 6.094792 -0.671089 -3.021601 5.775414 -0.426089 -1.102928 5.261159 -0.069852 -0.379535 4.998238 0.150615 -0.839489 9.477008 -3.456115 -0.323423 7.585103 -2.083235 10.931064 5.962286 -4.706065 -54.638360 -3.627708 -52.881663 -53.910780 21.787868 2.882866 12.395025 13.363205 21.388659 -6.237275 7.544857 10.199868 33.996297 1.034036 36.324877 96.248995 14.281236 -11.100042 -14.458691 3.843791 1.032403 15.104741 -59.016187 -12.090436 180.000000 84.845590 180.000000 11.268565 -3.122867 2.127141 0.000000 -8.208606 0.000000 5.605996 -62.470381 -7.369274 180.000000 84.041609 180.000000 -23.091620 -3.278395 -1.879082 0.000000 -7.388113 0.000000
-225.173145 48.937790 78.422015 -2.691806 -26.713386 6.162792 -3.528408 6.115676 -0.688450 -3.018006 5.777987 -0.441106 -1.105138 5.253103 -0.089651 -0.372795 5.046481 0.086540 -0.804993 9.517641 -3.402928 -0.312150 7.481894 -2.062722 10.958520 6.003244 -4.630531 -54.635577 -3.657097 -52.871845 -53.935863 21.770231 3.077523 12.458372 13.501339 21.372589 -6.257597 7.563619 10.241721 34.115367 1.037160 36.190867 96.230042 14.191326 -11.130590 -14.512293 3.821791 1.012397 15.160729 -59.021618 -12.105900 180.000000 84.840021 180.000000 11.222567 -3.183188 2.014738 0.000000 -8.114224 0.000000 5.592716 -62.487314 -7.371479 180.000000 84.053728 180.000000 -23.086911 -3.274089 -1.990075 0.000000 -7.492117 0.000000
-225.172485 48.932925 78.418872 -2.713382 -26.715663 6.188621 -3.506510 6.167809 -0.696620 -3.006029 5.779580 -0.458979 -1.135545 5.286633 -0.129284 -0.392972 5.032299 0.001263 -0.732414 9.558160 -3.429260 -0.258763 7.390665 -1.924156 11.051179 6.005790 -4.554027 -54.571900 -3.671509 -52.838829 -54.083341 21.612206 3.136364 12.495539 13.530938 21.274622 -6.189615 7.551067 10.255785 34.124734 0.938781 36.195369 96.210544 14.231258 -11.061431 -14.455874 3.740061 0.962673 15.308022 -59.018474 -12.176280 180.000000 84.823163 180.000000 11.207493 -3.187139 2.068062 0.000000 -8.078252 0.000000 5.617159 -62.496466 -7.398460 180.000000 84.053699 180.000000 -23.067917 -3.243657 -2.007055 0.000000 -7.595137 0.000000
-225.178296 48.929095 78.414301 -2.720532 -26.711736 6.195883 -3.479817 6.224317 -0.731236 -2.980360 5.783195 -0.482384 -1.129222 5.330255 -0.127364 -0.394308 4.995196 0.033386 -0.792676 9.590741 -3.468759 -0.285988 7.318398 -1.950562 11.073629 5.996995 -4.564991 -54.504347 -3.671308 -52.863877 -54.243817 21.487362 3.190825 12.626668 13.645394 21.338774 -6.248447 7.537637 10.174791 34.195915 0.893167 36.182540 96.224066 14.103244 -11.036100 -14.458884 3.946545 0.840985 15.450560 -58.999207 -12.230544 180.000000 84.832358 180.000000 11.144424 -3.236434 2.239392 0.000000 -8.030729 0.000000 5.612158 -62.512877 -7.392079 180.000000 84.042871 180.000000 -23.054913 -3.249829 -2.029120 0.000000 -7.508588 0.000000
